mtllib cny_1_coin.mtl
v 0.3125 0 0.015625
v 0.30649540012601 0.0609657256300401 0.015625
v 0.288712353909777 0.119588572614091 0.015625
v 0.259834253844545 0.173615697818626 0.015625
v 0.220970869120796 0.220970869120796 0.015625
v 0.173615697818626 0.259834253844545 0.015625
v 0.119588572614091 0.288712353909777 0.015625
v 0.0609657256300401 0.30649540012601 0.015625
v 1.91344742784746E-17 0.3125 0.015625
v -0.0609657256300401 0.30649540012601 0.015625
v -0.119588572614091 0.288712353909777 0.015625
v -0.173615697818626 0.259834253844545 0.015625
v -0.220970869120796 0.220970869120796 0.015625
v -0.259834253844545 0.173615697818626 0.015625
v -0.288712353909777 0.119588572614091 0.015625
v -0.30649540012601 0.0609657256300402 0.015625
v -0.3125 3.82689485569493E-17 0.015625
v -0.30649540012601 -0.0609657256300401 0.015625
v -0.288712353909777 -0.119588572614091 0.015625
v -0.259834253844545 -0.173615697818626 0.015625
v -0.220970869120796 -0.220970869120796 0.015625
v -0.173615697818626 -0.259834253844545 0.015625
v -0.119588572614091 -0.288712353909777 0.015625
v -0.0609657256300402 -0.306495400126009 0.015625
v -5.74034228354239E-17 -0.3125 0.015625
v 0.0609657256300401 -0.30649540012601 0.015625
v 0.119588572614091 -0.288712353909777 0.015625
v 0.173615697818626 -0.259834253844545 0.015625
v 0.220970869120796 -0.220970869120796 0.015625
v 0.259834253844545 -0.173615697818626 0.015625
v 0.288712353909777 -0.119588572614091 0.015625
v 0.306495400126009 -0.0609657256300402 0.015625
v 0.3125 0 -0.015625
v 0.30649540012601 0.0609657256300401 -0.015625
v 0.288712353909777 0.119588572614091 -0.015625
v 0.259834253844545 0.173615697818626 -0.015625
v 0.220970869120796 0.220970869120796 -0.015625
v 0.173615697818626 0.259834253844545 -0.015625
v 0.119588572614091 0.288712353909777 -0.015625
v 0.0609657256300401 0.30649540012601 -0.015625
v 1.91344742784746E-17 0.3125 -0.015625
v -0.0609657256300401 0.30649540012601 -0.015625
v -0.119588572614091 0.288712353909777 -0.015625
v -0.173615697818626 0.259834253844545 -0.015625
v -0.220970869120796 0.220970869120796 -0.015625
v -0.259834253844545 0.173615697818626 -0.015625
v -0.288712353909777 0.119588572614091 -0.015625
v -0.30649540012601 0.0609657256300402 -0.015625
v -0.3125 3.82689485569493E-17 -0.015625
v -0.30649540012601 -0.0609657256300401 -0.015625
v -0.288712353909777 -0.119588572614091 -0.015625
v -0.259834253844545 -0.173615697818626 -0.015625
v -0.220970869120796 -0.220970869120796 -0.015625
v -0.173615697818626 -0.259834253844545 -0.015625
v -0.119588572614091 -0.288712353909777 -0.015625
v -0.0609657256300402 -0.306495400126009 -0.015625
v -5.74034228354239E-17 -0.3125 -0.015625
v 0.0609657256300401 -0.30649540012601 -0.015625
v 0.119588572614091 -0.288712353909777 -0.015625
v 0.173615697818626 -0.259834253844545 -0.015625
v 0.220970869120796 -0.220970869120796 -0.015625
v 0.259834253844545 -0.173615697818626 -0.015625
v 0.288712353909777 -0.119588572614091 -0.015625
v 0.306495400126009 -0.0609657256300402 -0.015625
vt 1 0.5
vt 0.990392640201615 0.597545161008064
vt 0.961939766255643 0.691341716182545
vt 0.915734806151273 0.777785116509801
vt 0.853553390593274 0.853553390593274
vt 0.777785116509801 0.915734806151273
vt 0.691341716182545 0.961939766255643
vt 0.597545161008064 0.990392640201615
vt 0.5 1
vt 0.402454838991936 0.990392640201615
vt 0.308658283817455 0.961939766255643
vt 0.222214883490199 0.915734806151273
vt 0.146446609406726 0.853553390593274
vt 0.0842651938487273 0.777785116509801
vt 0.0380602337443566 0.691341716182545
vt 0.00960735979838478 0.597545161008064
vt 0 0.5
vt 0.00960735979838478 0.402454838991936
vt 0.0380602337443566 0.308658283817455
vt 0.0842651938487273 0.222214883490199
vt 0.146446609406726 0.146446609406726
vt 0.222214883490199 0.0842651938487274
vt 0.308658283817455 0.0380602337443567
vt 0.402454838991936 0.00960735979838484
vt 0.5 0
vt 0.597545161008064 0.00960735979838478
vt 0.691341716182545 0.0380602337443567
vt 0.777785116509801 0.0842651938487273
vt 0.853553390593274 0.146446609406726
vt 0.915734806151273 0.222214883490199
vt 0.961939766255643 0.308658283817455
vt 0.990392640201615 0.402454838991936
vt 1 0.5
vt 0.990392640201615 0.402454838991936
vt 0.961939766255643 0.308658283817455
vt 0.915734806151273 0.222214883490199
vt 0.853553390593274 0.146446609406726
vt 0.777785116509801 0.0842651938487274
vt 0.691341716182545 0.0380602337443566
vt 0.597545161008064 0.00960735979838478
vt 0.5 0
vt 0.402454838991936 0.00960735979838478
vt 0.308658283817455 0.0380602337443566
vt 0.222214883490199 0.0842651938487273
vt 0.146446609406726 0.146446609406726
vt 0.0842651938487273 0.222214883490199
vt 0.0380602337443566 0.308658283817455
vt 0.00960735979838478 0.402454838991936
vt 0 0.5
vt 0.00960735979838478 0.597545161008064
vt 0.0380602337443566 0.691341716182545
vt 0.0842651938487273 0.777785116509801
vt 0.146446609406726 0.853553390593274
vt 0.222214883490199 0.915734806151273
vt 0.308658283817455 0.961939766255643
vt 0.402454838991936 0.990392640201615
vt 0.5 1
vt 0.597545161008064 0.990392640201615
vt 0.691341716182545 0.961939766255643
vt 0.777785116509801 0.915734806151273
vt 0.853553390593274 0.853553390593274
vt 0.915734806151273 0.777785116509801
vt 0.961939766255643 0.691341716182545
vt 0.990392640201615 0.597545161008064
usemtl front
f 1/1 2/2 3/3 4/4 5/5 6/6 7/7 8/8 9/9 10/10 11/11 12/12 13/13 14/14 15/15 16/16 17/17 18/18 19/19 20/20 21/21 22/22 23/23 24/24 25/25 26/26 27/27 28/28 29/29 30/30 31/31 32/32
usemtl back
f 64/64 63/63 62/62 61/61 60/60 59/59 58/58 57/57 56/56 55/55 54/54 53/53 52/52 51/51 50/50 49/49 48/48 47/47 46/46 45/45 44/44 43/43 42/42 41/41 40/40 39/39 38/38 37/37 36/36 35/35 34/34 33/33
usemtl edge
f 1 2 34 33
f 2 3 35 34
f 3 4 36 35
f 4 5 37 36
f 5 6 38 37
f 6 7 39 38
f 7 8 40 39
f 8 9 41 40
f 9 10 42 41
f 10 11 43 42
f 11 12 44 43
f 12 13 45 44
f 13 14 46 45
f 14 15 47 46
f 15 16 48 47
f 16 17 49 48
f 17 18 50 49
f 18 19 51 50
f 19 20 52 51
f 20 21 53 52
f 21 22 54 53
f 22 23 55 54
f 23 24 56 55
f 24 25 57 56
f 25 26 58 57
f 26 27 59 58
f 27 28 60 59
f 28 29 61 60
f 29 30 62 61
f 30 31 63 62
f 31 32 64 63
f 32 1 33 64
